<?xml version="1.0" encoding="UTF-8" standalone="no"?>
<!-- Created with Inkscape (http://www.inkscape.org/) -->

<svg
   xmlns:dc="http://purl.org/dc/elements/1.1/"
   xmlns:cc="http://creativecommons.org/ns#"
   xmlns:rdf="http://www.w3.org/1999/02/22-rdf-syntax-ns#"
   xmlns:svg="http://www.w3.org/2000/svg"
   xmlns="http://www.w3.org/2000/svg"
   xmlns:sodipodi="http://sodipodi.sourceforge.net/DTD/sodipodi-0.dtd"
   xmlns:inkscape="http://www.inkscape.org/namespaces/inkscape"
   width="24"
   height="24"
   viewBox="0 0 6.3499999 6.3500002"
   version="1.1"
   id="svg41"
   inkscape:version="0.92.3 (2405546, 2018-03-11)"
   sodipodi:docname="google-sheets.svg">
  <defs
     id="defs35" />
  <sodipodi:namedview
     id="base"
     pagecolor="#ffffff"
     bordercolor="#666666"
     borderopacity="1.0"
     inkscape:pageopacity="0.0"
     inkscape:pageshadow="2"
     inkscape:zoom="15.839192"
     inkscape:cx="31.878025"
     inkscape:cy="5.601213"
     inkscape:document-units="mm"
     inkscape:current-layer="layer1"
     showgrid="false"
     units="px"
     inkscape:window-width="2560"
     inkscape:window-height="964"
     inkscape:window-x="0"
     inkscape:window-y="30"
     inkscape:window-maximized="1" />
  <metadata
     id="metadata38">
    <rdf:RDF>
      <cc:Work
         rdf:about="">
        <dc:format>image/svg+xml</dc:format>
        <dc:type
           rdf:resource="http://purl.org/dc/dcmitype/StillImage" />
        <dc:title></dc:title>
      </cc:Work>
    </rdf:RDF>
  </metadata>
  <g
     inkscape:label="Layer 1"
     inkscape:groupmode="layer"
     id="layer1"
     transform="translate(0,-290.64998)">
    <g
       id="g12"
       transform="matrix(0.00253478,0,0,-0.00253478,-4.4099862,303.87997)">
      <path
         d="m 3960,2852.2 c 0,-79.95 -64.83,-144.77 -144.77,-144.77 H 2304.77 c -79.94,0 -144.77,64.82 -144.77,144.77 v 2215 c 0,79.94 64.83,144.77 144.77,144.77 h 971.18 L 3960,4511.33 V 2852.2"
         style="fill:#23a566;fill-opacity:1;fill-rule:nonzero;stroke:none"
         id="path14"
         inkscape:connector-curvature="0" />
      <path
         d="m 3351.35,4529.11 608.65,-581.48 -1.79,564.6 -1.03,0.03 h -537.67 c -24.5,0 -47.57,6.1 -67.8,16.84 l -0.36,0.01"
         style="fill:#1c8f5a;fill-opacity:1;fill-rule:nonzero;stroke:none"
         id="path16"
         inkscape:connector-curvature="0" />
      <path
         d="m 3960,4512.26 h -540.49 c -79.94,0 -144.77,64.83 -144.77,144.77 v 555.55 L 3960,4512.26"
         style="fill:#8ed1b1;fill-opacity:1;fill-rule:nonzero;stroke:none"
         id="path18"
         inkscape:connector-curvature="0" />
      <path
         d="m 3528.09,3170.69 h -936.18 v 810.72 h 936.18 z m -410.2,694.9 v -144.77 h 294.38 v 144.77 z m 0,-231.63 v -135.13 h 294.38 v 135.13 z m 0,-221.99 v -125.46 h 294.38 v 125.46 z m -115.81,-125.46 v 125.46 h -294.35 v -125.46 z m 0,212.32 v 135.13 h -294.35 v -135.13 z m 0,221.99 v 144.77 h -294.35 v -144.77 h 294.35"
         style="fill:#ffffff;fill-opacity:1;fill-rule:evenodd;stroke:none"
         id="path20"
         inkscape:connector-curvature="0" />
    </g>
  </g>
</svg>
